<?xml version="1.0" encoding="UTF-8"?>
<svg version="1.1" xmlns="http://www.w3.org/2000/svg" width="500" height="500">
<path d="M0 0 C0.89892975 -0.00136459 1.7978595 -0.00272919 2.72402954 -0.00413513 C5.75485646 -0.0061984 8.7855888 0.0002706 11.81640625 0.0078125 C12.86480682 0.00903107 13.9132074 0.01024963 14.99337769 0.01150513 C34.7262008 0.03791825 54.45647325 0.26190459 74.18712234 0.53897858 C76.4249384 0.5700836 78.66276821 0.59994934 80.90060425 0.62957764 C107.90255964 0.99238484 107.90255964 0.99238484 118 1.48046875 C119.12720459 1.53340088 120.25440918 1.58633301 121.41577148 1.64086914 C127.02419042 2.5719859 130.78583746 4.9990935 134.34545898 9.40258789 C135.37890625 11.1328125 135.37890625 11.1328125 136.1015625 15.00390625 C137.26622923 18.13200131 138.13086342 18.99801096 141.10620117 20.61499023 C145.07649284 22.07679828 149.0721397 23.31344749 153.12890625 24.5078125 C154.69133664 24.99405315 156.2526704 25.48382916 157.81298828 25.97680664 C161.32155397 27.08226201 164.83465165 28.17164067 168.35058594 29.25341797 C178.80540613 32.49038863 189.18960452 35.95008937 199.58654785 39.36724854 C203.19374366 40.55057637 206.80302255 41.72730812 210.41308594 42.90185547 C216.74074468 44.96170179 223.06193767 47.04043099 229.37890625 49.1328125 C230.17220337 49.3936261 230.96550049 49.6544397 231.78283691 49.92315674 C233.75883027 50.57651569 235.72933752 51.24640669 237.69921875 51.91796875 C238.70484863 52.25836182 239.71047852 52.59875488 240.74658203 52.94946289 C244.82847773 54.78446089 247.6538489 57.08272944 250.19140625 60.7578125 C253.06319145 68.91972832 251.20322047 75.69763067 248.15625 83.56640625 C247.08479282 86.21323791 247.08479282 86.21323791 248.37890625 89.1328125 C250.80589116 91.08779068 250.80589116 91.08779068 253.87890625 93.0703125 C255.07229408 93.87399194 256.26496708 94.67873354 257.45703125 95.484375 C258.09447266 95.91266602 258.73191406 96.34095703 259.38867188 96.78222656 C262.83606132 99.12164737 266.23020417 101.53595729 269.62890625 103.9453125 C271.07284859 104.96624213 272.51685984 105.98707429 273.9609375 107.0078125 C274.68619629 107.52085937 275.41145508 108.03390625 276.15869141 108.5625 C279.87654668 111.19206291 283.59642297 113.81876132 287.31640625 116.4453125 C288.03393066 116.95223633 288.75145508 117.45916016 289.49072266 117.98144531 C293.15214641 120.5668832 296.8219082 123.13921468 300.50390625 125.6953125 C302.1315114 126.83744232 303.75616824 127.98377795 305.37890625 129.1328125 C305.97509766 129.55449707 306.57128906 129.97618164 307.18554688 130.41064453 C309.21428391 131.85156546 311.23474787 133.30350606 313.25390625 134.7578125 C313.89730957 135.21357666 314.54071289 135.66934082 315.20361328 136.13891602 C320.27155877 139.81481067 324.84080986 143.8406 326.37890625 150.1328125 C326.94537126 158.80287414 323.30608448 164.3140302 318.37890625 171.1328125 C317.64285156 172.18082031 316.90679687 173.22882813 316.1484375 174.30859375 C313.58985284 177.93941303 310.98702356 181.53747714 308.37890625 185.1328125 C306.29458766 188.00710011 304.21105017 190.88194905 302.12890625 193.7578125 C301.31172119 194.8861853 301.31172119 194.8861853 300.47802734 196.03735352 C295.78725162 202.53138087 291.19548571 209.09192138 286.61474609 215.66381836 C282.18567152 222.00748734 277.6772437 228.2895367 273.13500977 234.55249023 C267.98074939 241.66519694 262.91549035 248.83886682 257.86279297 256.02392578 C254.87283107 260.27323326 251.8737588 264.51611683 248.87646484 268.76025391 C246.38605251 272.28732569 243.89772505 275.8158275 241.4140625 279.34765625 C236.32368361 286.58122033 231.19688626 293.78498596 226.00390625 300.9453125 C221.33708905 307.38150245 216.7418035 313.86380806 212.19140625 320.3828125 C206.63859733 328.33724742 201.06645785 336.27399965 195.37890625 344.1328125 C194.97800781 344.69000977 194.57710938 345.24720703 194.1640625 345.82128906 C192.97249983 347.47253605 191.7711426 349.11616045 190.56640625 350.7578125 C189.87933594 351.69882812 189.19226563 352.63984375 188.484375 353.609375 C185.1561428 357.59831378 181.48568501 360.8844888 176.37890625 362.1328125 C163.98117544 362.94282758 155.11388532 354.01118063 145.84082031 346.95751953 C140.66766868 343.03967113 135.37713355 339.33285248 130.00390625 335.6953125 C122.91779381 330.8968709 115.93919599 325.97612233 109.01708984 320.94433594 C103.21856348 316.73069768 97.38903403 312.56411971 91.50708008 308.4675293 C88.12464346 306.10604124 84.79991369 303.70775547 81.5546875 301.16015625 C80.63864746 300.45765747 80.63864746 300.45765747 79.70410156 299.7409668 C78.06326303 298.47670298 76.44096857 297.18847162 74.8203125 295.8984375 C67.78836402 292.29067279 58.88012395 294.23834154 51.21362305 295.03491211 C50.25103073 295.13084152 49.28843842 295.22677094 48.29667664 295.3256073 C46.22206364 295.5329694 44.14767328 295.74256907 42.07349205 295.95420647 C38.76989936 296.29109387 35.46572271 296.62162282 32.16133118 296.95057678 C23.94727807 297.76953503 15.73425724 298.59864923 7.52130127 299.42852783 C0.58285776 300.12934555 -6.35600999 300.82565546 -13.29549217 301.51611519 C-16.51306857 301.83802117 -19.7299518 302.16629041 -22.94685364 302.49485779 C-32.70086404 303.47796502 -42.4613904 304.35915892 -52.24682617 304.96313477 C-53.10583432 305.02727286 -53.96484247 305.09141096 -54.84988117 305.15749264 C-59.9392522 305.42886898 -63.21440365 305.0131848 -67.62109375 302.1328125 C-73.1224295 296.38141603 -74.81758307 291.48143044 -75.53924561 283.70368958 C-75.61332406 282.96940259 -75.68740251 282.2351156 -75.76372576 281.47857749 C-76.00823738 279.0356096 -76.24197688 276.59173779 -76.47558594 274.14770508 C-76.64801328 272.3997611 -76.82102404 270.65187459 -76.99457932 268.90404224 C-77.45413393 264.25321209 -77.90384503 259.60148535 -78.35040092 254.94939089 C-78.61447186 252.20171374 -78.88049136 249.45423295 -79.14723206 246.70681381 C-80.33627576 234.45264361 -81.50291755 222.19640209 -82.66139317 209.93930793 C-82.95394013 206.84458589 -83.24685935 203.74989927 -83.53987885 200.65522194 C-84.46179209 190.91754439 -85.38251059 181.17975507 -86.30135465 171.44178742 C-87.35352708 160.29085402 -88.40985662 149.1403243 -89.46962285 137.9901101 C-90.29678034 129.28466749 -91.12034523 120.57888967 -91.9411819 111.87284881 C-92.42848526 106.70517931 -92.91726705 101.53766036 -93.40982819 96.37048912 C-93.87034764 91.53841557 -94.32639163 86.70594008 -94.77904129 81.87312317 C-94.94511489 80.10816047 -95.11276999 78.34334571 -95.28216934 76.57869911 C-97.79167426 50.40867824 -97.79167426 50.40867824 -92.62109375 43.1328125 C-87.16493906 37.67665781 -80.66075502 36.82436479 -73.2421875 36.09765625 C-72.44068268 36.01425491 -71.63917786 35.93085358 -70.81338501 35.84492493 C-68.22917338 35.57897339 -65.64403656 35.32399327 -63.05859375 35.0703125 C-62.18403534 34.98221313 -61.30947693 34.89411377 -60.40841675 34.80334473 C-47.49259447 33.50331438 -34.60358398 32.44753954 -21.62109375 32.1328125 C-21.67330078 30.17988281 -21.67330078 30.17988281 -21.7265625 28.1875 C-21.75471276 26.46095046 -21.78201159 24.73438689 -21.80859375 23.0078125 C-21.83373047 22.151875 -21.85886719 21.2959375 -21.88476562 20.4140625 C-21.9555848 14.27640042 -21.22476932 9.95543352 -16.90234375 5.26953125 C-16.31453125 4.79128906 -15.72671875 4.31304687 -15.12109375 3.8203125 C-14.53328125 3.32917969 -13.94546875 2.83804688 -13.33984375 2.33203125 C-9.24788336 -0.52304111 -4.76779053 -0.01122633 0 0 Z M-12.62109375 12.1328125 C-14.27606731 15.44275963 -13.7219371 19.1240425 -13.68359375 22.7578125 C-13.67908203 23.55960938 -13.67457031 24.36140625 -13.66992188 25.1875 C-13.65812543 27.16930256 -13.6401898 29.15106683 -13.62109375 31.1328125 C-12.17379883 31.01220459 -12.17379883 31.01220459 -10.69726562 30.88916016 C-10.05315735 30.83550293 -9.40904907 30.7818457 -8.74542236 30.7265625 C-7.28475739 30.60480251 -5.82410509 30.48289026 -4.36346436 30.36083984 C-0.298254 30.02138822 3.7671545 29.68469484 7.83300781 29.35302734 C15.17255828 28.75181057 22.50637843 28.13853708 29.83203125 27.3828125 C31.45141602 27.22304932 31.45141602 27.22304932 33.10351562 27.06005859 C35.05952102 26.86464747 37.01417923 26.65499776 38.96679688 26.42822266 C44.98885575 25.84490514 48.8984349 26.49541128 54.37890625 29.1328125 C61.86623578 35.9690699 61.69768692 45.83733661 62.44140625 55.3828125 C62.59645393 57.30489116 62.75392406 59.22677628 62.9140625 61.1484375 C63.01279663 62.40575684 63.01279663 62.40575684 63.11352539 63.68847656 C63.38760764 66.2129581 63.84492738 68.65143012 64.37890625 71.1328125 C77.67159889 70.88127683 85.87643687 65.82536383 96.37890625 58.1328125 C106.24883962 50.99744855 106.24883962 50.99744855 111.63671875 51.33984375 C115.84726058 52.23205668 118.26817241 53.70612977 121.75390625 56.1953125 C124.80122285 58.7595345 124.80122285 58.7595345 128.37890625 60.1328125 C129.47839137 52.22741444 129.67016359 44.45009508 129.72900391 36.47802734 C129.745643 34.82749409 129.77303653 33.17703516 129.81103516 31.52685547 C129.86592562 29.12169854 129.8876804 26.7181994 129.90234375 24.3125 C129.93634781 23.21541214 129.93634781 23.21541214 129.97103882 22.09616089 C129.95524566 18.2478193 129.42801482 15.68893545 127.09619141 12.68408203 C123.4549853 9.26533955 120.78438715 9.02570804 115.92675781 8.92749023 C115.03564804 8.90757019 114.14453827 8.88765015 113.22642517 8.86712646 C111.76276268 8.84201996 111.76276268 8.84201996 110.26953125 8.81640625 C109.22676529 8.79539856 108.18399933 8.77439087 107.1096344 8.75274658 C103.61614233 8.68536329 100.1225927 8.62668745 96.62890625 8.5703125 C94.82660049 8.54053818 94.82660049 8.54053818 92.98788452 8.51016235 C83.45183008 8.35720845 73.91557003 8.23895361 64.37890625 8.1328125 C63.2175906 8.11956436 63.2175906 8.11956436 62.03281403 8.10604858 C51.37194322 7.98497837 40.71137481 7.89597966 30.04992676 7.84671021 C26.81224515 7.83113241 23.57483391 7.80628179 20.33728027 7.77365112 C16.49342297 7.73555579 12.64996132 7.71721026 8.80592155 7.71379852 C7.38275255 7.70933454 5.95958638 7.69804521 4.53653145 7.67948151 C2.58024251 7.65520479 0.6236708 7.65837764 -1.33276367 7.6628418 C-2.43182541 7.65697556 -3.53088715 7.65110931 -4.66325378 7.64506531 C-8.32174142 8.24834915 -9.98086527 9.58246161 -12.62109375 12.1328125 Z M137.37890625 28.1328125 C137.33499756 28.70314209 137.29108887 29.27347168 137.24584961 29.86108398 C136.81225907 34.82197141 136.07426412 39.50314068 134.9453125 44.35546875 C133.64700878 51.68272016 132.67725285 59.34477125 136.37890625 66.1328125 C144.67878134 75.97471223 158.12068081 81.96225998 169.16552734 88.14111328 C176.38489861 92.21942594 183.20977045 96.85787973 190.05255127 101.53125 C193.40938272 103.81735691 196.79178456 106.0649027 200.171875 108.31640625 C201.41469833 109.14675186 202.65737875 109.97731141 203.89990234 110.80810547 C208.74412915 114.04575284 213.59272307 117.27684437 218.44140625 120.5078125 C219.82814846 121.43225647 221.21487059 122.35673057 222.6015625 123.28125 C223.51808594 123.89226562 224.43460937 124.50328125 225.37890625 125.1328125 C227.70596548 121.64222366 228.80910444 118.09244323 230.05859375 114.1328125 C230.43964767 112.94643188 230.43964767 112.94643188 230.82839966 111.73608398 C231.64132119 109.20305001 232.44799508 106.66808474 233.25390625 104.1328125 C234.31099413 100.81940864 235.37124552 97.50703329 236.43359375 94.1953125 C236.81569756 93.00024582 236.81569756 93.00024582 237.20552063 91.78103638 C238.87984702 86.57800204 240.6766111 81.44034669 242.66430664 76.34716797 C243.83922367 72.70641038 244.50260925 68.83195901 243.37890625 65.1328125 C239.8402313 61.01825388 236.87703842 59.2276082 231.73828125 57.58203125 C231.07923294 57.36613846 230.42018463 57.15024567 229.74116516 56.92781067 C227.54143765 56.21097067 225.33546243 55.5158199 223.12890625 54.8203125 C221.5612962 54.31395702 219.99416909 53.80610433 218.42749023 53.296875 C214.9857675 52.18047814 211.5413965 51.0727677 208.09521484 49.97021484 C201.90576942 47.9861742 195.72991378 45.96138387 189.5546875 43.93359375 C167.61803568 36.7116174 167.61803568 36.7116174 145.625 29.6640625 C144.66134521 29.36048828 143.69769043 29.05691406 142.70483398 28.74414062 C140.29615096 28.00571327 140.29615096 28.00571327 137.37890625 28.1328125 Z M28.15454102 34.11083984 C26.48979233 34.26695488 26.48979233 34.26695488 24.79141235 34.42622375 C21.13404013 34.77024582 17.47716215 35.11921973 13.8203125 35.46875 C11.27116448 35.71069432 8.72200558 35.9525241 6.1728363 36.19424438 C0.83399272 36.70138135 -4.50458992 37.2111668 -9.84301758 37.72265625 C-15.99828621 38.3123281 -22.15418966 38.89500354 -28.31043667 39.47436368 C-34.2520475 40.03385637 -40.1929953 40.60017099 -46.13371468 41.16905594 C-48.65284765 41.40941988 -51.17216894 41.64781868 -53.691679 41.88419724 C-57.21748343 42.21563247 -60.74245753 42.55485172 -64.26733398 42.89599609 C-65.8206971 43.03949745 -65.8206971 43.03949745 -67.40544128 43.18589783 C-77.48256504 44.0890766 -77.48256504 44.0890766 -86.62109375 48.0703125 C-92.31863452 56.79467181 -87.67229526 73.81831765 -86.72509766 83.83300781 C-86.52103112 86.03010244 -86.31739368 88.22723696 -86.114151 90.42440796 C-85.56308206 96.36664403 -85.00554377 102.30825616 -84.44644594 108.24974155 C-83.97978387 113.21512446 -83.51627209 118.18079941 -83.05274236 123.14647555 C-81.89698701 135.5270776 -80.73498299 147.9070861 -79.57006697 160.28682885 C-78.55951105 171.02817853 -77.55665766 181.77023082 -76.55748577 192.51264492 C-75.52973694 203.5616372 -74.4969309 214.61014752 -73.4589628 225.65818477 C-72.87694935 231.8535336 -72.2968586 238.04904689 -71.72166824 244.24503326 C-71.18098559 250.06671469 -70.63384936 255.88775411 -70.08173943 261.70836258 C-69.88029678 263.84346447 -69.6811219 265.97878172 -69.48438835 268.11432266 C-69.21536857 271.03055045 -68.93813932 273.94588601 -68.65884399 276.86114502 C-68.58295976 277.70482423 -68.50707553 278.54850344 -68.42889178 279.41774869 C-67.71135019 288.17710238 -67.71135019 288.17710238 -63.37524509 295.55092907 C-60.12240048 297.41924361 -58.28110919 297.57800867 -54.55467224 297.44294739 C-53.40696791 297.40636835 -52.25926357 297.36978931 -51.07678032 297.33210182 C-45.93371126 297.03550121 -40.81186911 296.66447822 -35.68383789 296.1706543 C-34.56991669 296.0681839 -33.45599548 295.9657135 -32.30831909 295.86013794 C-28.67366345 295.52385775 -25.03994466 295.17853079 -21.40625 294.83203125 C-18.86089305 294.59240839 -16.31551819 294.35297569 -13.77012634 294.11372375 C-8.45855004 293.61280006 -3.14747251 293.10693597 2.16333008 292.59790039 C8.28988816 292.01083633 14.41761722 291.43736194 20.54603857 290.87011021 C26.47001133 290.32112289 32.39266969 289.7588066 38.3149128 289.1914463 C40.82435349 288.95276686 43.33416691 288.7179728 45.84434319 288.48715782 C49.34656658 288.16389667 52.84700476 287.82544806 56.34741211 287.4831543 C57.3807518 287.391082 58.41409149 287.2990097 59.47874451 287.20414734 C64.69688108 286.67704065 68.87409537 286.04982156 73.37890625 283.1328125 C77.31494552 277.89020418 76.71243646 272.48548638 76.25390625 266.2578125 C76.23714844 265.30261719 76.22039062 264.34742188 76.203125 263.36328125 C75.8936757 259.1068937 75.4077097 256.21735825 72.41430664 253.06176758 C70.0636778 251.32285144 67.66831974 249.74326086 65.1661377 248.23168945 C62.51068749 246.59898931 59.94573708 244.83822753 57.36535645 243.09013367 C54.39545761 241.08308784 51.40601339 239.10606821 48.4173584 237.12710571 C44.4206563 234.48050199 40.42890828 231.82645344 36.4375 229.171875 C35.26146713 228.38992516 35.26146713 228.38992516 34.06167603 227.59217834 C26.69089106 222.68570661 19.36868294 217.71051215 12.0769043 212.68725586 C10.55156184 211.63898559 9.02169282 210.5972561 7.48632812 209.5637207 C6.09020594 208.61577444 4.71063501 207.64294524 3.34960938 206.64526367 C-1.7138154 203.10845897 -5.51282186 202.47625906 -11.62109375 202.8203125 C-12.78318359 202.85415039 -12.78318359 202.85415039 -13.96875 202.88867188 C-15.85372369 202.94685008 -17.73768335 203.03650174 -19.62109375 203.1328125 C-19.29109375 201.4828125 -18.96109375 199.8328125 -18.62109375 198.1328125 C-16.97109375 197.8028125 -15.32109375 197.4728125 -13.62109375 197.1328125 C-13.62109375 196.4728125 -13.62109375 195.8128125 -13.62109375 195.1328125 C-19.16765528 190.7370329 -24.54305755 187.81625168 -31.49609375 186.63671875 C-37.85735629 185.1282576 -42.28230598 180.79067221 -46.24609375 175.8359375 C-48.67177825 172.83139648 -51.40881932 170.09427153 -54.43359375 167.6953125 C-56.33597805 165.19217526 -55.99982157 163.16263509 -55.62109375 160.1328125 C-54.90759766 159.50052734 -54.90759766 159.50052734 -54.1796875 158.85546875 C-51.8991658 156.33489213 -51.84504151 153.89482887 -51.30859375 150.5703125 C-49.51202872 141.41728647 -45.4218192 135.2721669 -39.62109375 128.1328125 C-39.62109375 127.4728125 -39.62109375 126.8128125 -39.62109375 126.1328125 C-38.96109375 126.1328125 -38.30109375 126.1328125 -37.62109375 126.1328125 C-34.38785829 122.66479853 -31.53425458 118.87098047 -28.62109375 115.1328125 C-27.90824219 114.22273438 -27.19539063 113.31265625 -26.4609375 112.375 C-21.63661253 105.99833925 -17.9643038 99.38909795 -14.62109375 92.1328125 C-12.97109375 92.1328125 -11.32109375 92.1328125 -9.62109375 92.1328125 C-9.35425781 92.86886719 -9.08742188 93.60492188 -8.8125 94.36328125 C-5.56856423 101.90410243 1.35821977 109.89063092 8.37890625 114.1328125 C13.1182585 114.1089567 16.70262523 111.2552081 20.50390625 108.6953125 C21.99432675 107.69722207 23.48525045 106.69988282 24.9765625 105.703125 C25.8133252 105.14270508 26.65008789 104.58228516 27.51220703 104.00488281 C30.19463791 102.25314717 32.90539563 100.5652559 35.63806152 98.89387512 C38.13274818 97.36127346 40.60827017 95.79917745 43.08221436 94.23336792 C44.31662034 93.46116007 45.55874925 92.70115596 46.80841064 91.95388794 C53.75465954 88.10477315 53.75465954 88.10477315 58.1940918 81.91943359 C58.2453801 79.2156048 57.84978527 76.79713081 57.37890625 74.1328125 C57.23419336 72.23397359 57.09069502 70.33495959 56.96824646 68.43455505 C56.77820272 65.63062868 56.52011031 62.83448924 56.26196289 60.03613281 C56.06559835 57.87391649 55.88718089 55.71065485 55.70898438 53.546875 C55.58312855 52.15354628 55.45621266 50.76031282 55.328125 49.3671875 C55.21815186 48.12163086 55.10817871 46.87607422 54.99487305 45.59277344 C54.15928656 40.89918179 52.83232824 37.34399749 49.12890625 34.2578125 C42.77519122 31.65856544 34.82959519 33.46934971 28.15454102 34.11083984 Z M103.25390625 59.1328125 C101.83271484 60.07833984 101.83271484 60.07833984 100.3828125 61.04296875 C95.6579073 64.33012646 90.99529617 67.69507532 86.37890625 71.1328125 C88.4755831 73.25165295 90.56828107 75.2979085 92.81640625 77.2578125 C99.28919529 84.51996606 101.77226208 92.4587175 101.37890625 102.1328125 C99.46164717 117.69057106 89.77564271 127.65841012 78.37109375 137.359375 C77.38496094 138.23722656 77.38496094 138.23722656 76.37890625 139.1328125 C75.50322998 139.76960938 74.62755371 140.40640625 73.7253418 141.0625 C70.18445569 145.69575187 71.1843204 149.43226271 71.84375 155.03125 C71.95355698 156.15671234 72.06336395 157.28217468 72.17649841 158.44174194 C72.42323615 160.95957479 72.68120999 163.47632344 72.94842529 165.99206543 C73.41201091 170.37783001 73.8115038 174.76847778 74.20361328 179.16113281 C75.01188558 188.18279027 75.85391051 197.20102507 76.70288086 206.21893311 C77.02440941 209.6413034 77.34338027 213.06391019 77.66233921 216.48652077 C77.97278188 219.81528854 78.28449944 223.14393593 78.596632 226.47254562 C78.74405547 228.04565845 78.89116407 229.61880082 79.03793526 231.19197464 C79.24222381 233.37891614 79.44815864 235.56569663 79.65454102 237.75244141 C79.77064224 238.98862213 79.88674347 240.22480286 80.00636292 241.4984436 C80.12930222 242.69778534 80.25224152 243.89712708 80.37890625 245.1328125 C80.44030729 245.83645306 80.50170834 246.54009361 80.56497002 247.26505661 C81.02076068 251.82114695 81.61136373 254.34284661 85.22680664 257.39404297 C85.79262451 257.80283691 86.35844238 258.21163086 86.94140625 258.6328125 C87.53622803 259.06352051 88.1310498 259.49422852 88.74389648 259.93798828 C97.39871127 265.33483393 109.60528664 265.07459123 119.37890625 263.1328125 C122.36504634 261.30486553 123.83287823 260.22486853 125.37890625 257.1328125 C126.85681034 242.45789095 126.68711935 227.58293075 126.9140625 212.8515625 C126.94629387 210.86671839 126.97852877 208.88187433 127.01106066 206.89703512 C127.11354534 200.6434822 127.21243098 194.38987985 127.30883789 188.13623047 C127.39539101 182.52451356 127.48552558 176.91286962 127.5793457 171.30126953 C127.61374734 169.23515163 127.6481245 167.16903333 127.68248868 165.10291481 C127.70535905 163.72972294 127.7283081 162.35653237 127.75133586 160.98334312 C127.87612295 153.51142972 127.98854894 146.0396961 128.06680298 138.56713867 C128.09530318 135.90673634 128.12405341 133.24633685 128.15283203 130.5859375 C128.16658686 129.28912552 128.18034168 127.99231354 128.19451332 126.65620422 C128.28761974 119.11391464 128.48640939 111.58476876 128.79098988 104.04810333 C128.96833002 99.48541158 129.09344249 94.92213025 129.21005058 90.35752869 C129.27743772 88.2569942 129.36970698 86.15708505 129.48890877 84.05885315 C130.52520176 73.6926285 130.52520176 73.6926285 126.97267532 64.39242554 C123.18411087 61.09493732 118.97265902 59.08208619 114.37890625 57.1328125 C113.88390625 56.6378125 113.88390625 56.6378125 113.37890625 56.1328125 C109.04827383 55.64995453 106.82327937 56.74612719 103.25390625 59.1328125 Z M136.37890625 73.1328125 C135.48718689 90.62426908 135.48718689 90.62426908 135.37890625 108.1328125 C144.10131285 102.02712788 151.85913864 94.65258011 159.37890625 87.1328125 C158.36570312 86.45734375 157.3525 85.781875 156.30859375 85.0859375 C153.62109375 83.29427083 150.93359375 81.50260417 148.24609375 79.7109375 C147.59479492 79.27845703 146.94349609 78.84597656 146.27246094 78.40039062 C145.0478471 77.58061303 143.82925068 76.75174236 142.61816406 75.91210938 C139.76566089 73.77993897 139.76566089 73.77993897 136.37890625 73.1328125 Z M52.00390625 93.1328125 C48.27026323 95.79817426 44.51242579 98.40658369 40.69140625 100.9453125 C39.20060547 101.93724609 39.20060547 101.93724609 37.6796875 102.94921875 C35.26450145 104.54695722 32.84516649 106.13731991 30.421875 107.72265625 C29.41483521 108.38527466 29.41483521 108.38527466 28.38745117 109.0612793 C27.0790132 109.92217327 25.76808951 110.77930486 24.4543457 111.63208008 C21.07049539 113.86369247 18.12185544 116.14299788 15.37890625 119.1328125 C17.16519456 120.80559085 18.95741375 122.47105693 20.75390625 124.1328125 C21.26179688 124.60976562 21.7696875 125.08671875 22.29296875 125.578125 C24.9075339 128.29398964 24.9075339 128.29398964 28.37890625 129.1328125 C28.64574219 129.67035156 28.91257812 130.20789063 29.1875 130.76171875 C30.06337518 132.50485394 30.95349952 134.2408478 31.8515625 135.97265625 C32.37621094 136.99488281 32.90085938 138.01710937 33.44140625 139.0703125 C33.96863281 140.08996094 34.49585938 141.10960937 35.0390625 142.16015625 C38.48417652 149.8036891 38.37309931 157.95905907 35.69140625 165.8203125 C32.42498175 173.8337899 29.257766 178.50462287 21.2265625 182.19921875 C16.36361015 183.79352 11.46793497 184.03662811 6.37890625 184.1328125 C10.29531587 187.39773524 14.3920332 190.16415642 18.69140625 192.8828125 C19.65916992 193.49962891 19.65916992 193.49962891 20.64648438 194.12890625 C22.22232582 195.13277561 23.80038892 196.13315606 25.37890625 197.1328125 C23.67236328 197.80444336 23.67236328 197.80444336 21.37890625 198.1328125 C19.12060547 197.05297852 19.12060547 197.05297852 16.68359375 195.38671875 C15.80316406 194.79697266 14.92273438 194.20722656 14.015625 193.59960938 C13.10425781 192.97119141 12.19289063 192.34277344 11.25390625 191.6953125 C9.44137382 190.46365477 7.62638978 189.23559463 5.80859375 188.01171875 C5.00663574 187.4607251 4.20467773 186.90973145 3.37841797 186.34204102 C1.4831303 184.96031626 1.4831303 184.96031626 -0.62109375 185.1328125 C-0.29109375 188.4328125 0.03890625 191.7328125 0.37890625 195.1328125 C4.33890625 195.1328125 8.29890625 195.1328125 12.37890625 195.1328125 C12.70890625 196.7828125 13.03890625 198.4328125 13.37890625 200.1328125 C9.91390625 201.1228125 9.91390625 201.1228125 6.37890625 202.1328125 C9.94285032 206.08490311 14.11246565 208.78626715 18.52734375 211.68359375 C19.32885361 212.21519608 20.13036346 212.7467984 20.9561615 213.29450989 C23.55265669 215.015644 26.15322097 216.73051785 28.75390625 218.4453125 C32.29828494 220.79084348 35.84066458 223.1393832 39.3828125 225.48828125 C40.25115219 226.06352539 41.11949188 226.63876953 42.0141449 227.23144531 C49.85950322 232.43530321 57.63722237 237.73246605 65.35888672 243.1184082 C66.14537598 243.66198975 66.93186523 244.20557129 67.7421875 244.765625 C68.40516846 245.22855957 69.06814941 245.69149414 69.7512207 246.16845703 C71.35036633 247.30272069 71.35036633 247.30272069 73.37890625 247.1328125 C70.69225124 215.62358328 67.83497927 184.13241281 64.85961914 152.64916992 C64.29185826 146.64044542 63.72813053 140.63134928 63.16530323 134.62216091 C62.72531446 129.93037398 62.28293591 125.23881472 61.83984947 120.54731941 C61.63051009 118.32703431 61.4219922 116.10667158 61.21433449 113.88622856 C60.92768964 110.82422021 60.63773975 107.76254235 60.34692383 104.70092773 C60.2632959 103.7999939 60.17966797 102.89906006 60.09350586 101.9708252 C59.71009634 97.96871741 59.28600847 94.05842389 58.37890625 90.1328125 C55.52228514 90.1328125 54.30790312 91.46260118 52.00390625 93.1328125 Z M167.37890625 93.1328125 C168.08066387 99.84569136 169.43492191 106.31440687 170.91796875 112.89453125 C171.42094317 115.16984006 171.92353605 117.44523324 172.42578125 119.72070312 C173.2160986 123.28329014 174.00947918 126.84511205 174.80957031 130.40551758 C175.58376495 133.85828319 176.34550734 137.3136092 177.10546875 140.76953125 C177.46942245 142.36652107 177.46942245 142.36652107 177.84072876 143.99577332 C178.05780487 144.99063248 178.27488098 145.98549164 178.49853516 147.01049805 C178.69315338 147.88127487 178.88777161 148.7520517 179.08828735 149.6492157 C179.41550934 152.44561846 179.19111492 154.44074026 178.37890625 157.1328125 C176.56485003 159.10070069 174.83503908 160.78217748 172.81640625 162.5078125 C171.997771 163.23170166 171.997771 163.23170166 171.16259766 163.97021484 C169.57710574 165.36857287 167.97963654 166.75195414 166.37890625 168.1328125 C165.00386994 169.34110451 163.62886383 170.54943089 162.25390625 171.7578125 C161.62871094 172.29921875 161.00351562 172.840625 160.359375 173.3984375 C158.0675747 175.40545788 155.81893873 177.45684101 153.56640625 179.5078125 C149.07935182 183.56422084 144.44265794 187.40105215 139.7265625 191.1875 C135.25025085 194.64450479 135.25025085 194.64450479 133.9465332 200.04321289 C133.90491259 201.68865105 133.8796083 203.33455115 133.8671875 204.98046875 C133.8492363 205.86576767 133.8312851 206.75106659 133.81278992 207.66319275 C133.75862448 210.50718219 133.72491398 213.35101242 133.69140625 216.1953125 C133.65820577 218.05275815 133.6237136 219.9101812 133.58789062 221.76757812 C133.38074679 233.22259417 133.33915403 244.67622407 133.37890625 256.1328125 C137.68517756 254.62632316 141.26494542 252.36739959 145.00390625 249.80859375 C145.64996826 249.37211014 146.29603027 248.93562653 146.96166992 248.48591614 C148.3645795 247.53763357 149.76614178 246.58735539 151.16650391 245.63531494 C153.42475304 244.1016767 155.68812999 242.57590149 157.953125 241.05224609 C161.94981045 238.36328135 165.94274849 235.66882509 169.93408203 232.97192383 C172.40329056 231.30383958 174.87350602 229.63725349 177.34375 227.97070312 C178.93886328 226.89331977 180.53391754 225.81584901 182.12890625 224.73828125 C182.85505127 224.24861374 183.58119629 223.75894623 184.3293457 223.25444031 C185.70106698 222.32677725 187.06864139 221.39294506 188.43147278 220.45227051 C189.71496001 219.58266057 191.01921363 218.74283572 192.3433075 217.93640137 C197.00405224 214.97558227 198.8230852 211.96638952 200.3359375 206.640625 C200.56558701 205.90953018 200.79523651 205.17843536 201.03184509 204.42518616 C201.77474828 202.04248704 202.48293335 199.65095004 203.19140625 197.2578125 C203.7003088 195.60510666 204.21173043 193.95317454 204.72558594 192.30200195 C205.77483429 188.92187674 206.81199386 185.53839826 207.84033203 182.15185547 C209.96080639 175.19608879 212.21191686 168.28319031 214.46298218 161.36883545 C215.51941718 158.11901849 216.56605354 154.86607665 217.61328125 151.61328125 C217.95584961 150.55004639 218.29841797 149.48681152 218.65136719 148.39135742 C218.89145508 147.6460376 219.13154297 146.90071777 219.37890625 146.1328125 C218.42636963 145.52808105 218.42636963 145.52808105 217.45458984 144.91113281 C214.55392131 143.06905223 211.65390874 141.22594145 208.75390625 139.3828125 C207.75488281 138.74859375 206.75585938 138.114375 205.7265625 137.4609375 C204.75332031 136.8421875 203.78007812 136.2234375 202.77734375 135.5859375 C201.83729492 134.98845703 200.89724609 134.39097656 199.92871094 133.77539062 C197.85831277 132.44164504 195.82028328 131.07724049 193.79296875 129.6796875 C191.57610562 127.95297332 191.57610562 127.95297332 189.37890625 128.1328125 C190.03890625 127.1428125 190.69890625 126.1528125 191.37890625 125.1328125 C195.13097251 127.40024501 198.88019049 129.67234566 202.62890625 131.9453125 C203.69238281 132.58791016 204.75585938 133.23050781 205.8515625 133.89257812 C206.87636719 134.51455078 207.90117187 135.13652344 208.95703125 135.77734375 C209.8996582 136.34815674 210.84228516 136.91896973 211.81347656 137.50708008 C214.37890625 139.1328125 214.37890625 139.1328125 216.53027344 140.9050293 C217.14032227 141.31019775 217.75037109 141.71536621 218.37890625 142.1328125 C219.36890625 141.8028125 220.35890625 141.4728125 221.37890625 141.1328125 C222.40591069 138.80390154 222.40591069 138.80390154 223.06640625 136.0703125 C223.50390625 134.42447917 223.94140625 132.77864583 224.37890625 131.1328125 C215.44484683 124.4713373 206.22798919 118.28691251 196.94140625 112.1328125 C195.50310883 111.17730363 194.06495709 110.22157545 192.62695312 109.265625 C189.84645646 107.41739124 187.06452463 105.57134649 184.28173828 103.7265625 C181.75095244 102.04744064 179.22587571 100.36031803 176.70654297 98.6640625 C175.61744629 97.931875 174.52834961 97.1996875 173.40625 96.4453125 C172.45355225 95.80207031 171.50085449 95.15882813 170.51928711 94.49609375 C168.66127723 93.04327619 168.66127723 93.04327619 167.37890625 93.1328125 Z M243.37890625 96.1328125 C241.95102868 100.50986486 240.52696303 104.88813167 239.10644531 109.26757812 C238.62247108 110.75782898 238.13744938 112.24774007 237.65136719 113.73730469 C236.95363358 115.87607179 236.25965261 118.01602487 235.56640625 120.15625 C235.34766846 120.82401459 235.12893066 121.49177917 234.90356445 122.17977905 C233.76031154 125.5869284 233.76031154 125.5869284 233.37890625 129.1328125 C234.04277344 129.44734375 234.70664062 129.761875 235.390625 130.0859375 C241.28413554 132.94235429 246.38543371 135.42343017 250.34765625 140.80859375 C254.10534631 145.36087364 259.1426702 148.23162143 264.06640625 151.3828125 C265.96736176 152.61531413 267.86715968 153.84960359 269.765625 155.0859375 C271.02185669 155.89272949 271.02185669 155.89272949 272.3034668 156.71582031 C275.11715498 158.6368468 276.2452182 159.47922646 276.94140625 162.8828125 C276.27628281 166.72574794 274.94665264 168.0078579 271.9140625 170.35546875 C264.5576324 175.51290434 257.12587707 180.57664384 249.37890625 185.1328125 C249.59546875 185.89464844 249.81203125 186.65648437 250.03515625 187.44140625 C252.80127718 197.69910471 253.75935355 206.18293935 249.37890625 216.1328125 C245.03774866 223.60925057 238.758943 228.94345252 230.5234375 231.76953125 C221.83982073 233.24052644 213.27981728 232.90060566 205.33203125 229.0078125 C203.27929941 227.92838937 203.27929941 227.92838937 200.37890625 228.1328125 C200.16672455 228.78188568 199.95454285 229.43095886 199.7359314 230.09970093 C197.70748979 236.3044773 195.67853796 242.50908658 193.64905357 248.71352196 C192.60642506 251.90104948 191.56403054 255.08865305 190.52197266 258.27636719 C190.12026855 259.50516602 189.71856445 260.73396484 189.3046875 262 C188.9064679 263.2184259 188.50824829 264.43685181 188.09796143 265.69219971 C187.30316064 268.11961033 186.50625649 270.54633329 185.70721436 272.97235107 C183.97747237 278.2250006 182.26088429 283.47846045 180.62988281 288.76269531 C180.36817291 289.59386871 180.10646301 290.42504211 179.83682251 291.28140259 C179.37004234 292.76721071 178.91470389 294.25669496 178.47445679 295.75057983 C176.80363549 301.00314416 174.26765192 304.41729675 169.50256348 307.24710083 C161.99405918 310.37866547 153.58333934 307.3587056 146.30859375 304.9140625 C145.26986115 304.57789917 144.23112854 304.24173584 143.16091919 303.89538574 C139.85395031 302.82149087 136.55403392 301.7275268 133.25390625 300.6328125 C131.09418125 299.92836398 128.93402735 299.22522897 126.7734375 298.5234375 C118.00184404 295.66526854 109.24142801 292.77952754 100.51660156 289.78125 C99.41389923 289.40512573 98.3111969 289.02900146 97.17507935 288.64147949 C95.06731726 287.92116543 92.96209334 287.1933692 90.85983276 286.45715332 C89.92011627 286.13678101 88.98039978 285.81640869 88.01220703 285.48632812 C86.77460129 285.05688904 86.77460129 285.05688904 85.51199341 284.61877441 C83.21093961 283.90043588 83.21093961 283.90043588 80.37890625 285.1328125 C79.17008529 287.13297716 79.17008529 287.13297716 78.37890625 289.1328125 C87.21149346 295.8721276 96.23744061 302.30386454 105.32861328 308.68798828 C108.29470567 310.77816865 111.24332964 312.89233891 114.19140625 315.0078125 C120.65297309 319.63988823 127.17290751 324.18688057 133.69433594 328.73413086 C138.71035371 332.23991388 143.68944204 335.79047004 148.63671875 339.39257812 C157.05788624 345.52551538 157.05788624 345.52551538 165.62890625 351.4453125 C166.81226563 352.24388672 166.81226563 352.24388672 168.01953125 353.05859375 C171.08703103 354.45522031 173.03968465 354.59563207 176.37890625 354.1328125 C181.11357892 351.28324098 183.83604751 346.99248204 186.87890625 342.5078125 C187.94297433 340.96933497 189.00811375 339.43159797 190.07421875 337.89453125 C190.61981445 337.10481934 191.16541016 336.31510742 191.72753906 335.50146484 C194.35187235 331.73723043 197.05407837 328.03057102 199.75390625 324.3203125 C205.03360728 317.04153227 210.20960414 309.69435108 215.35449219 302.31982422 C219.10283493 296.94873611 222.88164367 291.60169172 226.69873047 286.27929688 C229.88721228 281.83073536 233.04159096 277.35881215 236.19140625 272.8828125 C240.33555832 266.99662605 244.52700824 261.14732027 248.75390625 255.3203125 C255.17477849 246.46317237 261.44319865 237.50300406 267.703125 228.53173828 C274.88750151 218.24711072 282.15730819 208.02757893 289.51928711 197.86938477 C293.72347857 192.06120219 297.87240815 186.21600617 301.97583008 180.33618164 C304.42724186 176.83738196 306.92354539 173.3939677 309.5390625 170.015625 C310.04743652 169.35135498 310.55581055 168.68708496 311.07958984 168.00268555 C312.03636605 166.7591907 313.00586053 165.52532592 313.99072266 164.30395508 C317.33515722 159.93493579 318.36215201 156.6784672 318.37890625 151.1328125 C316.51022378 145.97494503 312.13403497 143.5152501 307.75390625 140.5703125 C306.21728082 139.51196132 304.68082744 138.45336031 303.14453125 137.39453125 C301.96213867 136.58701416 301.96213867 136.58701416 300.75585938 135.76318359 C296.97941403 133.17288963 293.2421984 130.52773112 289.50390625 127.8828125 C288.42725708 127.1235144 288.42725708 127.1235144 287.32885742 126.34887695 C283.55154613 123.68251386 279.79519492 120.99186971 276.06640625 118.2578125 C269.910936 113.74824078 263.63881089 109.40490872 257.36987305 105.05517578 C253.96457855 102.68446391 250.62239544 100.33092707 247.40234375 97.7109375 C245.54374267 95.92781452 245.54374267 95.92781452 243.37890625 96.1328125 Z M256.37890625 153.1328125 C256.34152344 154.11121094 256.30414063 155.08960938 256.265625 156.09765625 C255.89034243 163.58123217 255.20893067 170.11927373 252.37890625 177.1328125 C253.08015625 176.68550781 253.78140625 176.23820312 254.50390625 175.77734375 C255.45265625 175.17277344 256.40140625 174.56820312 257.37890625 173.9453125 C258.37664062 173.30722656 259.374375 172.66914063 260.40234375 172.01171875 C263.53688395 170.03309167 266.71104592 168.13214379 269.91796875 166.2734375 C271.69664595 165.10152883 271.69664595 165.10152883 272.37890625 162.1328125 C270.09071479 160.62726616 267.79869456 159.12824207 265.50390625 157.6328125 C264.52744141 156.98892578 264.52744141 156.98892578 263.53125 156.33203125 C260.2285555 153.95299287 260.2285555 153.95299287 256.37890625 153.1328125 Z M-17.62109375 186.1328125 C-14.42440387 188.7814984 -11.22622778 191.07273591 -7.62109375 193.1328125 C-7.95109375 189.8328125 -8.28109375 186.5328125 -8.62109375 183.1328125 C-11.92464921 183.1328125 -14.64217624 184.80884916 -17.62109375 186.1328125 Z M186.87890625 227.21484375 C181.77871025 230.85614222 176.60063325 234.35634551 171.37890625 237.8203125 C169.51691597 239.05857705 167.65493698 240.29685856 165.79296875 241.53515625 C164.87547852 242.14472168 163.95798828 242.75428711 163.01269531 243.38232422 C159.25705445 245.8784259 155.50547796 248.38060141 151.75390625 250.8828125 C151.05845703 251.34623047 150.36300781 251.80964844 149.64648438 252.28710938 C145.49040785 255.05660432 141.33634166 257.82908142 137.18423462 260.60452271 C134.70131697 262.26396995 132.21778471 263.92249607 129.73419189 265.58093262 C128.50210148 266.40400161 127.27028764 267.22748479 126.03875732 268.0513916 C124.3090919 269.20849229 122.57847703 270.36415975 120.84765625 271.51953125 C119.84154297 272.19201904 118.83542969 272.86450684 117.79882812 273.55737305 C113.67785841 276.24024407 111.53097567 276.27804758 106.72265625 275.72265625 C104.17906821 275.08251993 103.11491231 274.30244934 101.19140625 272.5703125 C96.20963299 268.44255752 89.4628323 269.75309451 83.37890625 270.1328125 C83.37890625 272.4428125 83.37890625 274.7528125 83.37890625 277.1328125 C90.66439685 279.52508929 97.95029863 281.91611025 105.23669434 284.30562878 C108.62185747 285.41580882 112.00688974 286.52638413 115.39160156 287.63793945 C122.9787685 290.12929113 130.56903621 292.61068307 138.16308594 295.08099365 C140.96058236 295.99598864 143.75265243 296.92522589 146.54296875 297.86181641 C147.94648952 298.32362245 149.35012162 298.78509041 150.75390625 299.24609375 C151.87539063 299.62161377 152.996875 299.99713379 154.15234375 300.3840332 C159.07799333 301.52711487 163.44416634 302.3313921 167.9551239 299.53683472 C170.91308582 296.60298788 171.77524197 294.25534105 173.05786133 290.30053711 C173.28292358 289.62202194 173.50798584 288.94350677 173.73986816 288.24443054 C174.4755248 286.01292142 175.18717572 283.77454824 175.8984375 281.53515625 C176.40562965 279.97820976 176.91416941 278.42170168 177.42399597 276.86561584 C178.48702814 273.60979194 179.53920401 270.3507396 180.58276367 267.08862305 C181.92116232 262.90513343 183.27780218 258.72786632 184.64148426 254.55255795 C185.94159358 250.56957244 187.23298361 246.58377846 188.5234375 242.59765625 C188.77053782 241.83661024 189.01763813 241.07556423 189.27222633 240.29145622 C189.9685986 238.14104399 190.65878328 235.98875179 191.34692383 233.83569336 C191.74043533 232.61087753 192.13394684 231.38606171 192.53938293 230.12413025 C193.51401284 227.16922766 193.51401284 227.16922766 193.37890625 224.1328125 C190.48992153 224.1328125 189.20679168 225.53085622 186.87890625 227.21484375 Z " fill="#FEFEFE" transform="translate(148.62109375,76.8671875)"/>
<path d="M0 0 C4.26330763 1.4994258 7.83112795 3.71397204 11.546875 6.234375 C12.18267487 6.66011307 12.81847473 7.08585114 13.47354126 7.52449036 C15.56859896 8.92871887 17.65926263 10.33934884 19.75 11.75 C21.22054689 12.73737306 22.69141809 13.72426324 24.16259766 14.71069336 C27.23036677 16.76807655 30.29671456 18.82755532 33.36230469 20.88818359 C37.85054233 23.90264173 42.34920149 26.90122013 46.8515625 29.89453125 C47.56498306 30.36890625 48.27840363 30.84328125 49.01344299 31.33203125 C50.43381607 32.27647113 51.8541906 33.22090882 53.27456665 34.16534424 C65.58047055 42.35092391 77.84053442 50.59776172 90 59 C89.01 61.97 89.01 61.97 88 65 C79.49895053 59.66445201 71.1318489 54.13956161 62.78515625 48.56689453 C60.63656023 47.1327164 58.48633654 45.7010041 56.3359375 44.26953125 C52.87224679 41.96222607 49.41767272 39.641677 45.96594238 37.31652832 C44.05363192 36.03591557 42.13103347 34.77220425 40.20605469 33.51074219 C39.04072199 32.7341644 37.8756671 31.95716952 36.7109375 31.1796875 C35.7007959 30.51437012 34.6906543 29.84905273 33.64990234 29.16357422 C30.70688053 26.76067581 29.08332658 24.14727219 27 21 C25.00024479 20.96870938 22.99982564 20.97359174 21 21 C18.09672917 19.53306064 15.54717954 17.61978373 12.9375 15.6875 C11.55162333 14.69023499 10.16492381 13.69411233 8.77734375 12.69921875 C8.12967041 12.22572998 7.48199707 11.75224121 6.81469727 11.2644043 C4.85980809 9.85352054 4.85980809 9.85352054 2.0234375 8.375 C1.35570312 7.92125 0.68796875 7.4675 0 7 C-0.3125 3.3125 -0.3125 3.3125 0 0 Z " fill="#C6C6C6" transform="translate(285,143)"/>
<path d="M0 0 C1 2 1 2 -0.1015625 5.37109375 C-1.81651252 9.10482351 -3.8834091 10.83099768 -7.375 13.0625 C-7.93098877 13.42625732 -8.48697754 13.79001465 -9.05981445 14.16479492 C-10.32118356 14.98958165 -11.58721064 15.80727316 -12.85693359 16.61914062 C-16.10035153 18.70899843 -19.29822278 20.86583489 -22.50292969 23.0144043 C-25.22841747 24.83990607 -27.95904406 26.65746246 -30.69140625 28.47265625 C-35.33914358 31.56031392 -39.98292052 34.65384544 -44.625 37.75 C-45.32069092 38.2135791 -46.01638184 38.6771582 -46.7331543 39.15478516 C-50.88898683 41.92411711 -55.04280854 44.69643198 -59.19467163 47.47171021 C-61.67758928 49.13115745 -64.16112154 50.78968357 -66.64471436 52.44812012 C-67.87680477 53.27118911 -69.10861861 54.09467229 -70.34014893 54.9185791 C-72.06981435 56.07567979 -73.80042922 57.23134725 -75.53125 58.38671875 C-76.53736328 59.05920654 -77.54347656 59.73169434 -78.58007812 60.42456055 C-82.67946287 63.09337912 -84.81785545 63.15874385 -89.6015625 62.5859375 C-93.53979247 61.6238292 -95.93322855 59.61001825 -99 57 C-99 56.67 -99 56.34 -99 56 C-97.41676312 55.972807 -95.83338938 55.95351694 -94.25 55.9375 C-93.36828125 55.92589844 -92.4865625 55.91429687 -91.578125 55.90234375 C-89 56 -89 56 -87.04296875 56.5859375 C-84.12086214 57.1781809 -81.9264367 56.44953108 -79.0625 55.6875 C-77.53302734 55.29111328 -77.53302734 55.29111328 -75.97265625 54.88671875 C-70.71536546 53.6133504 -70.71536546 53.6133504 -66.875 50.25 C-66.22535376 48.57948111 -65.62930452 46.88791355 -65.0625 45.1875 C-62.41109957 41.08988116 -59.34541965 39.3854548 -55.19213867 36.92358398 C-52.30861024 35.18596865 -49.502873 33.38220782 -46.70703125 31.5078125 C-45.66442139 30.80897949 -44.62181152 30.11014648 -43.54760742 29.39013672 C-36.56482019 24.68945611 -29.59433869 19.97058537 -22.625 15.25 C-20.34226418 13.7041609 -18.05944291 12.15844837 -15.77645874 10.61297607 C-14.36942238 9.66044719 -12.96253185 8.70770283 -11.55581665 7.75469971 C-7.71437715 5.15377844 -3.86320147 2.56849481 0 0 Z " fill="#C6C6C6" transform="translate(345,291)"/>
<path d="M0 0 C2.07221985 0.99328613 2.07221985 0.99328613 4.1340332 2.40820312 C4.91783859 2.93767044 5.70164398 3.46713776 6.50920105 4.01264954 C7.76728325 4.88810677 7.76728325 4.88810677 9.05078125 5.78125 C10.37623711 6.68299202 10.37623711 6.68299202 11.72846985 7.60295105 C14.59725733 9.55798392 17.45483631 11.52875202 20.3125 13.5 C22.26727415 14.83685255 24.22284182 16.17254553 26.17919922 17.50708008 C29.08929867 19.49272482 31.99868059 21.47934767 34.90490723 23.47065735 C40.29146348 27.16100271 45.69488866 30.82141209 51.14453125 34.41796875 C51.72074722 34.79853424 52.2969632 35.17909973 52.89064026 35.57119751 C55.44339814 37.25488792 57.99997913 38.93255749 60.55981445 40.60546875 C61.41921631 41.17265625 62.27861816 41.73984375 63.1640625 42.32421875 C63.89061035 42.79947998 64.6171582 43.27474121 65.36572266 43.7644043 C67 45 67 45 68 47 C68.039992 48.99960012 68.04346799 51.00047242 68 53 C58.44461424 47.00955308 49.06601112 40.76203952 39.6875 34.5 C38.89541138 33.97175629 38.10332275 33.44351257 37.28723145 32.89926147 C26.71399858 25.84754954 16.16464576 18.76408801 5.69799805 11.5546875 C0.87440186 8.23924156 -4.00713366 5.05509351 -9 2 C-5.8364384 0.12529683 -3.65993466 -0.29826264 0 0 Z " fill="#C6C6C6" transform="translate(155,279)"/>
<path d="M0 0 C5.86830161 3.69656794 11.70757227 7.43547442 17.5 11.25 C18.4796875 11.89453125 19.459375 12.5390625 20.46875 13.203125 C25.73545966 16.94183865 25.73545966 16.94183865 26.6875 20.75 C24.91551025 29.12667882 13.37036225 34.30701048 6.5859375 38.765625 C3.49601672 40.74570347 0.31895841 42.42732432 -3 44 C-3.75 42.3125 -3.75 42.3125 -4 40 C-1.26698934 35.95989729 1.79318586 33.54965332 5.875 30.9375 C6.88304687 30.28652344 7.89109375 29.63554687 8.9296875 28.96484375 C10.44949219 27.99224609 10.44949219 27.99224609 12 27 C13.07507813 26.25878906 14.15015625 25.51757812 15.2578125 24.75390625 C18 23 18 23 20 23 C18.42455373 18.27366119 13.78489537 16.53980557 9.63476562 14.11132812 C4.58334489 10.95604186 1.94899249 7.66757889 0 2 C0 1.34 0 0.68 0 0 Z " fill="#C6C6C6" transform="translate(400,219)"/>
<path d="M0 0 C3.23828125 1.77734375 3.23828125 1.77734375 6.3125 3.9375 C7.33988281 4.64777344 8.36726563 5.35804688 9.42578125 6.08984375 C12 8 12 8 14 10 C14.125 13.125 14.125 13.125 14 16 C8.7028591 13.54061315 4.49209108 10.99613483 0.15234375 7.07421875 C-3.23877016 5.38173903 -5.37938216 6.05697297 -9 7 C-11.72681277 8.40658646 -14.19126788 10.09665502 -16.6875 11.875 C-17.33783203 12.32230469 -17.98816406 12.76960937 -18.65820312 13.23046875 C-21.24949649 15.02139322 -23.76044799 16.79596926 -26.16015625 18.83984375 C-28.59281993 20.37381639 -29.94821542 20.14072986 -32.75 19.6875 C-33.54921875 19.56761719 -34.3484375 19.44773438 -35.171875 19.32421875 C-35.77515625 19.21722656 -36.3784375 19.11023438 -37 19 C-34.33743017 16.19910993 -31.68605509 13.97090451 -28.4453125 11.87109375 C-27.58292969 11.31099609 -26.72054687 10.75089844 -25.83203125 10.17382812 C-24.93871094 9.60083984 -24.04539063 9.02785156 -23.125 8.4375 C-22.23941406 7.86064453 -21.35382813 7.28378906 -20.44140625 6.68945312 C-7.15093703 -1.89686343 -7.15093703 -1.89686343 0 0 Z " fill="#C6C6C6" transform="translate(264,128)"/>
<path d="M0 0 C0.50390625 3.13671875 0.50390625 3.13671875 0 7 C-2.33051176 9.48477732 -5.14751786 11.08294981 -8.0625 12.8125 C-9.71898058 13.85249741 -11.37522695 14.89286795 -13.03125 15.93359375 C-14.28421875 16.70292236 -14.28421875 16.70292236 -15.5625 17.48779297 C-19.12215792 19.6961785 -22.58971087 22.03344036 -26.0625 24.375 C-27.27970316 25.18135917 -28.49714155 25.9873634 -29.71484375 26.79296875 C-31.74942897 28.15984229 -33.76662923 29.55349543 -35.75390625 30.98828125 C-36.53636719 31.54902344 -37.31882813 32.10976562 -38.125 32.6875 C-38.76695312 33.16574219 -39.40890625 33.64398438 -40.0703125 34.13671875 C-42.67930034 35.30389752 -44.30923622 34.76812461 -47 34 C-47.495 32.515 -47.495 32.515 -48 31 C-47.53553467 30.7004541 -47.07106934 30.4009082 -46.5925293 30.09228516 C-37.92256322 24.49409005 -29.2739467 18.86624371 -20.6953125 13.12890625 C-20.0821669 12.71896423 -19.4690213 12.30902222 -18.83729553 11.88665771 C-15.78124929 9.84229265 -12.72761821 7.79440814 -9.67651367 5.74267578 C-8.55130171 4.98855875 -7.42605906 4.23448752 -6.30078125 3.48046875 C-4.80285034 2.47342896 -4.80285034 2.47342896 -3.2746582 1.44604492 C-1 0 -1 0 0 0 Z " fill="#C7C7C7" transform="translate(207,160)"/>
<path d="M0 0 C10.40659925 5.33192052 20.16609434 11.69492003 30 18 C29.67 19.32 29.34 20.64 29 22 C18.59340075 16.66807948 8.83390566 10.30507997 -1 4 C-0.67 2.68 -0.34 1.36 0 0 Z " fill="#C6C6C6" transform="translate(339,201)"/>
<path d="M0 0 C6.06883978 1.36288344 10.54002237 3.94033538 15.6875 7.375 C16.43322266 7.85710937 17.17894531 8.33921875 17.94726562 8.8359375 C21.66740106 11.27841714 25.0048078 13.66498388 28 17 C24.80901153 18.02522299 23.42272027 18.19184789 20.32104492 16.78417969 C19.38365479 16.16961914 18.44626465 15.55505859 17.48046875 14.921875 C16.45888672 14.25542969 15.43730469 13.58898437 14.38476562 12.90234375 C13.32966797 12.19207031 12.27457031 11.48179687 11.1875 10.75 C9.57584961 9.70779297 9.57584961 9.70779297 7.93164062 8.64453125 C2.07373226 4.76901346 2.07373226 4.76901346 0 3 C0 2.01 0 1.02 0 0 Z " fill="#C7C7C7" transform="translate(147,258)"/>
<path d="M0 0 C6.99778026 -0.77434454 11.06634146 -0.03583341 16.6015625 4.39453125 C18 6 18 6 18 9 C12.61568567 9.50932703 9.99772327 8.13420314 5.625 5.0625 C4.56539063 4.33160156 3.50578125 3.60070312 2.4140625 2.84765625 C1.61742188 2.23792969 0.82078125 1.62820313 0 1 C0 0.67 0 0.34 0 0 Z " fill="#C7C7C7" transform="translate(123,264)"/>
<path d="M0 0 C1.77388086 1.09926403 3.54399684 2.20460502 5.3125 3.3125 C6.29863281 3.92738281 7.28476563 4.54226563 8.30078125 5.17578125 C10.50172035 6.66324661 12.23328988 8.0403386 14 10 C12.41753293 10.08153933 10.83383727 10.13943557 9.25 10.1875 C8.36828125 10.22230469 7.4865625 10.25710938 6.578125 10.29296875 C3.48482568 9.94145746 2.1714867 9.21169942 0 7 C-0.25 3.3125 -0.25 3.3125 0 0 Z " fill="#C8C8C8" transform="translate(230,330)"/>
<path d="M0 0 C0.66 4.62 1.32 9.24 2 14 C-3.33333333 11.33333333 -3.33333333 11.33333333 -5 9 C-5.41062354 5.71501168 -5.6171336 3.84154581 -3.625 1.125 C-2 0 -2 0 0 0 Z " fill="#CACACA" transform="translate(97,234)"/>
</svg>
