<?xml version="1.0" encoding="UTF-8"?>
<svg version="1.1" xmlns="http://www.w3.org/2000/svg" width="500" height="500">
<path d="M0 0 C8.21266747 0.26551992 16.30612264 1.19026782 24.43798828 2.32910156 C26.81822859 2.65696174 29.20116387 2.95391821 31.58544922 3.25073242 C33.1143545 3.46043801 34.64301174 3.67196183 36.17138672 3.88549805 C37.22928909 4.01084175 37.22928909 4.01084175 38.30856323 4.13871765 C43.37363574 4.89847469 45.65309456 6.6173256 48.92919922 10.4675293 C51.6505804 13.61699291 54.94034264 15.05136197 58.67919922 16.7175293 C59.3337207 17.01691406 59.98824219 17.31629883 60.66259766 17.62475586 C62.74862546 18.57873805 64.83835792 19.52414786 66.92919922 20.4675293 C69.68274284 21.70992006 72.43209459 22.96097577 75.17919922 24.2175293 C75.81051758 24.49886719 76.44183594 24.78020508 77.09228516 25.07006836 C82.89078453 27.72415509 82.89078453 27.72415509 84.92919922 30.4675293 C84.75732422 32.7019043 84.75732422 32.7019043 84.17919922 35.2175293 C83.65260708 39.0203253 83.65260708 39.0203253 85.12841797 42.43237305 C86.97152108 44.25890894 88.88957207 45.86388193 90.92919922 47.4675293 C92.28695799 48.67182491 93.64114524 49.88015941 94.99169922 51.0925293 C97.41960476 53.19450977 99.87843545 55.25012991 102.36669922 57.2800293 C105.20818173 59.7056851 105.74533761 60.50225586 106.42919922 64.0925293 C105.66072216 69.27974941 102.49332593 71.78603966 98.92919922 75.4675293 C97.60414973 76.91013957 96.27931856 78.35296357 94.95996094 79.80078125 C93.53890253 81.35930571 92.11155877 82.91187628 90.68310547 84.46362305 C88.26671285 87.09369322 85.8750042 89.7448976 83.49169922 92.4050293 C79.96603116 96.33580105 76.39300747 100.21959088 72.80419922 104.0925293 C68.43017742 108.81587245 64.14251488 113.59991049 59.92919922 118.4675293 C58.49563194 120.11678927 57.0580463 121.76256402 55.61669922 123.4050293 C54.96056641 124.15655273 54.30443359 124.90807617 53.62841797 125.68237305 C51.42835923 127.99369912 50.34189219 128.41215383 47.16357422 128.83862305 C42.95857939 128.35616591 41.03079273 126.41967577 38.17919922 123.5300293 C37.12891768 122.51649039 36.0781285 121.50347727 35.02685547 120.4909668 C34.50752441 119.98146484 33.98819336 119.47196289 33.453125 118.94702148 C30.44251267 116.02419054 27.295253 113.2530585 24.14794922 110.47924805 C21.92919922 108.4675293 21.92919922 108.4675293 20.21044922 106.61206055 C16.76115635 103.05286374 14.19496696 102.13018533 9.23779297 101.8347168 C8.08287354 101.76542969 6.9279541 101.69614258 5.73803711 101.62475586 C-1.79934127 101.31361736 -9.34352602 101.15694268 -16.88671875 101.06616211 C-19.00324669 101.03866858 -21.11873463 100.99291947 -23.23486328 100.9440918 C-24.47703613 100.92427246 -25.71920898 100.90445313 -26.99902344 100.8840332 C-30.07080078 100.4675293 -30.07080078 100.4675293 -31.93554688 99.12524414 C-34.70519997 95.08095499 -34.12428827 90.81389292 -33.98486328 86.1472168 C-33.96398651 85.30787094 -33.94310974 84.46852509 -33.92160034 83.60374451 C-33.85167898 80.84983732 -33.77395741 78.09621412 -33.69580078 75.3425293 C-33.64531814 73.44434528 -33.59519057 71.54615178 -33.54541016 69.64794922 C-33.44305838 65.78969221 -33.33706044 61.93156019 -33.22802734 58.07348633 C-33.10433765 53.69620384 -32.9874932 49.31878972 -32.87435913 44.94122314 C-32.79567522 41.92494123 -32.71309984 38.90877702 -32.62908936 35.89263916 C-32.59056347 34.49630762 -32.55314949 33.09994491 -32.51690674 31.70355225 C-32.46594455 29.76669592 -32.40912208 27.82999649 -32.35205078 25.89331055 C-32.32175781 24.81476807 -32.29146484 23.73622559 -32.26025391 22.625 C-31.6956724 13.2155508 -31.6956724 13.2155508 -29.46533203 10.5456543 C-26.13146467 9.04459819 -23.40236603 9.14428175 -19.75830078 9.2175293 C-17.84597656 9.24073242 -17.84597656 9.24073242 -15.89501953 9.2644043 C-12.20906858 9.46018514 -8.71002335 9.88374715 -5.07080078 10.4675293 C-5.13267578 9.5600293 -5.19455078 8.6525293 -5.25830078 7.7175293 C-5.03145298 3.7855008 -4.14951057 0.93684423 0 0 Z M-2.07080078 5.4675293 C-2.07080078 7.1175293 -2.07080078 8.7675293 -2.07080078 10.4675293 C5.51919922 10.7975293 13.10919922 11.1275293 20.92919922 11.4675293 C21.81667115 15.017417 22.03465389 17.60933708 21.99169922 21.2175293 C21.98267578 22.20237305 21.97365234 23.1872168 21.96435547 24.2019043 C21.95275391 24.94956055 21.94115234 25.6972168 21.92919922 26.4675293 C23.18732422 26.6944043 24.44544922 26.9212793 25.74169922 27.1550293 C28.699235 27.92063253 29.77671065 28.31504072 31.99169922 30.5300293 C33.52365056 35.33014351 32.95005284 40.0499429 30.99560547 44.6784668 C29.63088261 46.96800186 28.34170907 47.40318672 25.92919922 48.4675293 C23.65957994 49.56551188 23.65957994 49.56551188 21.92919922 51.4675293 C20.96179376 56.43758944 20.79356382 61.32412973 20.83154297 66.36987305 C20.83366539 67.45372032 20.83366539 67.45372032 20.83583069 68.5594635 C20.84137697 70.84136294 20.85391901 73.12316008 20.86669922 75.4050293 C20.87172118 76.96297058 20.87628286 78.52091341 20.88037109 80.07885742 C20.89132872 83.87512011 20.9085555 87.67130743 20.92919922 91.4675293 C23.94823633 92.27242019 26.54771811 92.57608049 29.67919922 92.5300293 C30.47841797 92.52100586 31.27763672 92.51198242 32.10107422 92.50268555 C32.70435547 92.49108398 33.30763672 92.47948242 33.92919922 92.4675293 C35.287876 87.28893915 36.36019292 82.2130798 37.12182617 76.90576172 C37.22447281 76.19740173 37.32711945 75.48904175 37.43287659 74.75921631 C37.76608986 72.44782733 38.09253697 70.13556331 38.41748047 67.82299805 C38.5297164 67.02870203 38.64195232 66.23440601 38.75758934 65.41604042 C39.34930195 61.22467877 39.93550289 57.03258801 40.51733398 52.83984375 C41.11953054 48.50889274 41.74146304 44.18101029 42.36770344 39.85348034 C42.84630876 36.52049433 43.31012231 33.18557135 43.76988792 29.84993935 C43.99276972 28.25232404 44.22130408 26.65548684 44.45556068 25.05949974 C44.78061637 22.83562764 45.08461613 20.60983672 45.38354492 18.38232422 C45.56182327 17.11627853 45.74010162 15.85023285 45.92378235 14.54582214 C46.21183898 11.52064068 46.21183898 11.52064068 44.69091797 9.58532715 C41.67436366 7.67134518 38.23108451 7.50208913 34.75341797 7.08081055 C33.95063919 6.97407516 33.14786041 6.86733978 32.320755 6.75737 C30.62273102 6.53395419 28.9238949 6.31663821 27.22436523 6.10498047 C24.63520088 5.78233486 22.04884409 5.44211414 19.46240234 5.09838867 C17.80954216 4.88315972 16.15655091 4.66893438 14.50341797 4.45581055 C13.73446701 4.35585281 12.96551605 4.25589508 12.17326355 4.15290833 C4.46807972 2.66848295 4.46807972 2.66848295 -2.07080078 5.4675293 Z M-28.07080078 14.4675293 C-28.52131717 17.07805947 -28.52131717 17.07805947 -28.66064453 20.15112305 C-28.73395996 21.32658691 -28.80727539 22.50205078 -28.8828125 23.71313477 C-29.19680566 29.98402678 -29.45012091 36.25399645 -29.63330078 42.5300293 C-29.65414734 43.2212085 -29.6749939 43.9123877 -29.69647217 44.62451172 C-30.04887355 56.57149617 -30.17761836 68.51566706 -30.19580078 80.4675293 C-30.19838898 81.26699982 -30.20097717 82.06647034 -30.2036438 82.89016724 C-30.20943982 85.14516814 -30.20795676 87.40002771 -30.20361328 89.6550293 C-30.20248535 90.94795898 -30.20135742 92.24088867 -30.20019531 93.57299805 C-30.40173913 96.36153195 -30.40173913 96.36153195 -29.07080078 97.4675293 C-27.35746539 97.62637783 -25.63791153 97.71891836 -23.91845703 97.78393555 C-22.30003906 97.84701904 -22.30003906 97.84701904 -20.64892578 97.91137695 C-18.90869141 97.97010986 -18.90869141 97.97010986 -17.13330078 98.0300293 C-15.37566406 98.09262939 -15.37566406 98.09262939 -13.58251953 98.15649414 C-6.57910501 98.3911545 0.42174012 98.56833784 7.42919922 98.5925293 C8.16904053 98.59712158 8.90888184 98.60171387 9.67114258 98.60644531 C13.42569651 98.64878837 13.42569651 98.64878837 16.92919922 97.4675293 C18.93798832 69.85736416 19.11230913 42.13684572 18.92919922 14.4675293 C16.45819199 13.23202568 14.66109525 13.2609441 11.89794922 13.15112305 C10.86742432 13.10898682 9.83689941 13.06685059 8.77514648 13.0234375 C7.11890259 12.96482544 7.11890259 12.96482544 5.42919922 12.9050293 C4.30892334 12.864021 3.18864746 12.8230127 2.03442383 12.78076172 C-4.81187993 12.54481704 -11.65806303 12.34353671 -18.50830078 12.2800293 C-19.25208984 12.26705811 -19.99587891 12.25408691 -20.76220703 12.24072266 C-24.8696128 12.10674191 -24.8696128 12.10674191 -28.07080078 14.4675293 Z M47.92919922 16.4675293 C47.42435448 19.71679595 46.92617328 22.96705029 46.42919922 26.2175293 C46.21457031 27.59811523 46.21457031 27.59811523 45.99560547 29.0065918 C45.86025391 29.89604492 45.72490234 30.78549805 45.58544922 31.7019043 C45.39692383 32.92731934 45.39692383 32.92731934 45.20458984 34.17749023 C44.84960212 36.74500408 44.84960212 36.74500408 44.92919922 40.4675293 C45.65107422 40.1787793 46.37294922 39.8900293 47.11669922 39.5925293 C49.72086589 38.55086263 52.32503255 37.50919596 54.92919922 36.4675293 C55.91919922 48.8425293 55.91919922 48.8425293 56.92919922 61.4675293 C55.27919922 62.1275293 53.62919922 62.7875293 51.92919922 63.4675293 C49.97779112 64.77113388 48.06149608 66.12848123 46.17919922 67.5300293 C44.73287109 68.59930664 44.73287109 68.59930664 43.25732422 69.69018555 C40.42779349 71.61117813 40.42779349 71.61117813 39.5402832 74.60058594 C39.41983643 75.51702881 39.29938965 76.43347168 39.17529297 77.37768555 C39.04316406 78.36704102 38.91103516 79.35639648 38.77490234 80.37573242 C38.64019531 81.41665039 38.50548828 82.45756836 38.36669922 83.5300293 C38.228125 84.57481445 38.08955078 85.61959961 37.94677734 86.69604492 C37.60380655 89.28606574 37.2647929 91.87654399 36.92919922 94.4675293 C32.79001595 95.29659419 29.24654583 95.4901649 25.05419922 95.0300293 C24.08740234 94.92819336 23.12060547 94.82635742 22.12451172 94.72143555 C21.03783203 94.59575195 21.03783203 94.59575195 19.92919922 94.4675293 C19.92919922 95.1275293 19.92919922 95.7875293 19.92919922 96.4675293 C23.83703516 98.34074002 27.75671329 100.18771754 31.67919922 102.0300293 C32.79037109 102.56305664 33.90154297 103.09608398 35.04638672 103.64526367 C36.11630859 104.14477539 37.18623047 104.64428711 38.28857422 105.15893555 C39.2730957 105.62501221 40.25761719 106.09108887 41.27197266 106.57128906 C43.80607954 107.5926203 43.80607954 107.5926203 46.1081543 107.42553711 C48.81638641 106.00080151 49.42579707 104.20067739 50.70654297 101.44799805 C51.21354736 100.37662598 51.72055176 99.30525391 52.24291992 98.20141602 C52.77876709 97.0311084 53.31461426 95.86080078 53.86669922 94.6550293 C54.43600988 93.43846237 55.00658722 92.22248748 55.57836914 91.00708008 C57.07747853 87.81127453 58.55899182 84.60762404 60.03625488 81.40167236 C61.47859479 78.27752272 62.9349039 75.15990736 64.39013672 72.04174805 C66.59139154 67.32276748 68.77603838 62.59637335 70.95263672 57.8659668 C72.78085984 53.90579393 74.64910435 49.97362014 76.59326172 46.0690918 C76.98280029 45.27841309 77.37233887 44.48773438 77.77368164 43.6730957 C78.47664021 42.25461733 79.19200741 40.84218541 79.92260742 39.43774414 C81.18581053 36.87333665 82.04095447 35.10565177 81.53857422 32.23706055 C79.19778567 29.66332944 76.38211702 28.49402845 73.24169922 27.1550293 C71.88990306 26.55399204 70.53834781 25.95241272 69.18701172 25.3503418 C68.48866211 25.04386719 67.7903125 24.73739258 67.07080078 24.42163086 C64.92223224 23.46442545 62.79535114 22.47024163 60.67138672 21.4597168 C59.99164795 21.13656494 59.31190918 20.81341309 58.61157227 20.48046875 C57.29982418 19.85549808 55.98876722 19.22907436 54.6784668 18.60107422 C51.44514996 16.98905695 51.44514996 16.98905695 47.92919922 16.4675293 Z M80.92919922 43.4675293 C77.89908793 47.83856273 77.89908793 47.83856273 76.99169922 52.8425293 C77.89594789 54.82517312 77.89594789 54.82517312 80.92919922 55.4675293 C82.4077286 58.96223511 82.19055073 62.74327033 81.92919922 66.4675293 C81.43419922 67.2512793 80.93919922 68.0350293 80.42919922 68.8425293 C78.52104466 72.18179977 78.76461621 74.51972431 79.01904297 78.28393555 C78.91109895 80.90744451 78.40250936 82.29657697 76.92919922 84.4675293 C74.06475457 86.39540394 71.77809611 86.71852399 68.36669922 86.6550293 C67.60228516 86.64858398 66.83787109 86.64213867 66.05029297 86.63549805 C63.92919922 86.4675293 63.92919922 86.4675293 60.92919922 85.4675293 C60.60121338 86.15903076 60.27322754 86.85053223 59.93530273 87.56298828 C58.45629731 90.67805006 56.97404357 93.7915551 55.49169922 96.9050293 C54.97542969 97.99364258 54.45916016 99.08225586 53.92724609 100.20385742 C53.43417969 101.23833008 52.94111328 102.27280273 52.43310547 103.33862305 C51.97750244 104.29696045 51.52189941 105.25529785 51.05249023 106.24267578 C49.92919922 108.4675293 49.92919922 108.4675293 48.92919922 109.4675293 C42.03128985 110.36360413 37.15713039 107.55235957 31.11669922 104.4675293 C29.23674337 103.52691582 27.35530508 102.58925749 25.47216797 101.6550293 C24.64740967 101.23608398 23.82265137 100.81713867 22.97290039 100.38549805 C20.99853057 99.33095104 20.99853057 99.33095104 18.92919922 99.4675293 C20.49253251 103.45961252 23.28966864 105.88355795 26.42919922 108.6550293 C26.9594873 109.13190186 27.48977539 109.60877441 28.03613281 110.10009766 C29.66254674 111.5611506 31.29574388 113.01435829 32.92919922 114.4675293 C34.80494123 116.15420447 36.68001452 117.84162384 38.55419922 119.5300293 C39.35083984 120.24288086 40.14748047 120.95573242 40.96826172 121.69018555 C42.32006691 122.9154273 43.63912274 124.17745282 44.92919922 125.4675293 C48.05250991 125.31367163 49.55163646 124.8053091 51.89404297 122.7097168 C52.54501953 121.92854492 53.19599609 121.14737305 53.86669922 120.3425293 C54.63626953 119.4453418 55.40583984 118.5481543 56.19873047 117.6237793 C56.8399585 116.87354492 56.8399585 116.87354492 57.49414062 116.1081543 C60.26323551 112.94239764 63.17064367 109.90366897 66.05419922 106.8425293 C70.10503354 102.52227702 74.0994164 98.17768482 77.96044922 93.6862793 C81.4882374 89.71051801 85.15325758 85.86070173 88.78955078 81.984375 C92.50391274 78.01721617 96.15893601 74.01373866 99.69482422 69.88549805 C100.7247315 68.70240836 101.8200531 67.57667542 102.92919922 66.4675293 C102.93580406 62.6565341 101.86667985 61.399318 99.26904297 58.56518555 C98.14612701 57.54105154 97.01138102 56.52977641 95.86669922 55.5300293 C94.98848511 54.74160645 94.98848511 54.74160645 94.0925293 53.93725586 C89.87883567 50.19304001 85.53639599 46.71966819 80.92919922 43.4675293 Z " fill="#0F6986" transform="translate(206.07080078125,154.532470703125)"/>
<path d="M0 0 C9.466875 -0.0825 18.93375 -0.165 28.6875 -0.25 C31.66998779 -0.28641602 34.65247559 -0.32283203 37.7253418 -0.36035156 C40.09162679 -0.37203497 42.45791982 -0.38222762 44.82421875 -0.390625 C46.05096313 -0.41108887 47.27770752 -0.43155273 48.54162598 -0.45263672 C49.71858032 -0.45312012 50.89553467 -0.45360352 52.1081543 -0.45410156 C53.63704536 -0.46742523 53.63704536 -0.46742523 55.19682312 -0.48101807 C58.74942485 0.12859941 60.40791984 1.55075579 63 4 C65.13115844 7.12894257 65.21822906 9.61527838 65.125 13.3515625 C65.10953125 14.36734375 65.0940625 15.383125 65.078125 16.4296875 C65.05234375 17.48414063 65.0265625 18.53859375 65 19.625 C64.94912255 21.72115085 64.907008 23.81753862 64.875 25.9140625 C64.85179687 26.8417041 64.82859375 27.7693457 64.8046875 28.72509766 C64.77123815 31.20059057 64.77123815 31.20059057 67 33 C68.48436137 37.48278323 68.26167203 42.13971516 68.3125 46.8125 C68.35600586 48.12831055 68.35600586 48.12831055 68.40039062 49.47070312 C68.45918809 55.51779672 67.64700997 59.11390083 64 64 C60.70304535 66.18811774 57.93982084 66.24344463 54.03808594 66.22705078 C52.82040527 66.22680908 51.60272461 66.22656738 50.34814453 66.22631836 C49.07310059 66.21608643 47.79805664 66.20585449 46.484375 66.1953125 C45.30891113 66.19329834 44.13344727 66.19128418 42.92236328 66.18920898 C38.53153582 66.17874521 34.14076399 66.15082265 29.75 66.125 C19.9325 66.08375 10.115 66.0425 0 66 C0 44.22 0 22.44 0 0 Z M11 12 C10.67972695 15.05819227 10.67972695 15.05819227 10.75 18.5 C10.74484375 19.6653125 10.7396875 20.830625 10.734375 22.03125 C10.69074227 25.11826065 10.69074227 25.11826065 13 27 C16.00135613 27.18776167 18.90887146 27.25550182 21.91015625 27.23046875 C22.79279648 27.23001053 23.67543671 27.22955231 24.58482361 27.2290802 C26.45182641 27.22605687 28.31882667 27.21816817 30.18579102 27.20581055 C33.05428939 27.18755226 35.92246521 27.18530084 38.79101562 27.18554688 C40.60156531 27.18063188 42.41211279 27.17480364 44.22265625 27.16796875 C45.08617203 27.16685593 45.94968781 27.1657431 46.83937073 27.16459656 C50.73276857 27.51768594 50.73276857 27.51768594 54 26 C54.07313567 23.46950598 54.09247527 20.96695163 54.0625 18.4375 C54.05798828 17.72658203 54.05347656 17.01566406 54.04882812 16.28320312 C54.03700864 14.52209987 54.01907263 12.76103964 54 11 C50.68647254 9.34323627 46.98659638 9.83687756 43.34375 9.83203125 C42.05664124 9.82703865 42.05664124 9.82703865 40.74353027 9.82194519 C38.92782122 9.81687862 37.11210284 9.81453678 35.29638672 9.81469727 C32.5112383 9.81250883 29.72648464 9.79434511 26.94140625 9.77539062 C25.17968886 9.7724571 23.41796958 9.77047203 21.65625 9.76953125 C20.81976929 9.76234573 19.98328857 9.75516022 19.12145996 9.74775696 C14.58537835 9.56330119 14.58537835 9.56330119 11 12 Z M11 39 C10.80150929 41.54535141 10.72148225 43.95716759 10.75 46.5 C10.74226562 47.18964844 10.73453125 47.87929688 10.7265625 48.58984375 C10.6238695 52.75214386 10.6238695 52.75214386 13 56 C14.88332737 56.29780312 14.88332737 56.29780312 17.05078125 56.24291992 C18.30217896 56.24753487 18.30217896 56.24753487 19.57885742 56.25224304 C20.9320105 56.24146477 20.9320105 56.24146477 22.3125 56.23046875 C23.23716064 56.23001053 24.16182129 56.22955231 25.11450195 56.2290802 C27.07146486 56.22605625 29.02842532 56.21816569 30.98535156 56.20581055 C33.98771656 56.18757461 36.98977295 56.18530069 39.9921875 56.18554688 C41.89062768 56.18063097 43.78906576 56.17480234 45.6875 56.16796875 C46.58960205 56.16685593 47.4917041 56.1657431 48.42114258 56.16459656 C49.25540771 56.15821671 50.08967285 56.15183685 50.94921875 56.14526367 C51.68487061 56.14145187 52.42052246 56.13764008 53.1784668 56.13371277 C55.09940919 56.10885072 55.09940919 56.10885072 57 55 C57 49.39 57 43.78 57 38 C54.73015442 36.86507721 53.469449 36.86779496 50.94921875 36.85473633 C50.11495361 36.84835648 49.28068848 36.84197662 48.42114258 36.83540344 C47.51904053 36.83429062 46.61693848 36.8331778 45.6875 36.83203125 C44.76283936 36.82870285 43.83817871 36.82537445 42.88549805 36.82194519 C40.92855325 36.81687779 38.97159979 36.81453681 37.01464844 36.81469727 C34.01222606 36.81250891 31.01016991 36.79434614 28.0078125 36.77539062 C26.10937626 36.77245711 24.21093827 36.77047203 22.3125 36.76953125 C21.41039795 36.76234573 20.5082959 36.75516022 19.57885742 36.74775696 C18.74459229 36.75083359 17.91032715 36.75391022 17.05078125 36.75708008 C15.94730347 36.75494255 15.94730347 36.75494255 14.8215332 36.75276184 C12.74951683 36.84676461 12.74951683 36.84676461 11 39 Z " fill="#0E6887" transform="translate(129,271)"/>
<path d="M0 0 C22.11 0 44.22 0 67 0 C67 13 67 13 64.61328125 16.2890625 C63.03857422 17.49462891 63.03857422 17.49462891 61.3125 18.625 C60.11242478 19.51968566 58.91323044 20.4155539 57.71484375 21.3125 C57.09722168 21.75335938 56.47959961 22.19421875 55.84326172 22.6484375 C52.88582275 24.81696493 50.14556506 27.22565307 47.375 29.625 C43.45057522 32.95903495 39.49278753 36.24790349 35.5 39.5 C29.27350404 44.59440578 23.14145202 49.80338675 17 55 C41.75 55.495 41.75 55.495 67 56 C67 59.3 67 62.6 67 66 C44.89 66 22.78 66 0 66 C0 61.71 0 57.42 0 53 C3.17211842 49.87074804 5.71440995 47.62208662 9.30566406 45.20263672 C12.38319977 43.0182072 15.16658085 40.4874626 18 38 C22.99682854 33.68587965 28.05995538 29.46709348 33.1875 25.30859375 C37.09025802 22.10507988 40.93124844 18.82997997 44.76196289 15.54077148 C48.78474018 12.10762991 48.78474018 12.10762991 51 11 C34.17 10.67 17.34 10.34 0 10 C0 6.7 0 3.4 0 0 Z " fill="#0E6887" transform="translate(22,161)"/>
<path d="M0 0 C3.63 0 7.26 0 11 0 C11.02505615 1.6305835 11.0501123 3.26116699 11.07592773 4.94116211 C11.16979673 10.96631311 11.27006672 16.99134326 11.37231445 23.01635742 C11.41574124 25.62863344 11.45741038 28.24093928 11.49731445 30.85327148 C11.55483007 34.59888719 11.61857764 38.34435169 11.68359375 42.08984375 C11.70030624 43.26586655 11.71701874 44.44188934 11.73423767 45.65354919 C11.75418289 46.73459427 11.77412811 47.81563934 11.79467773 48.92944336 C11.81022202 49.88652695 11.8257663 50.84361053 11.84178162 51.82969666 C11.7606861 53.97862694 11.7606861 53.97862694 13 55 C14.38160115 55.0927833 15.76788038 55.11747043 17.15258789 55.11352539 C18.49238708 55.11334412 18.49238708 55.11334412 19.85925293 55.11315918 C20.80417603 55.10804321 21.74909912 55.10292725 22.72265625 55.09765625 C24.01858704 55.09614563 24.01858704 55.09614563 25.34069824 55.09460449 C28.58131225 55.0893555 31.8219074 55.07539436 35.0625 55.0625 C42.301875 55.041875 49.54125 55.02125 57 55 C57 36.85 57 18.7 57 0 C60.63 0 64.26 0 68 0 C68.09061562 7.31093759 68.163896 14.6215648 68.20724869 21.93294621 C68.22806311 25.32847638 68.25626588 28.72360015 68.30175781 32.11889648 C68.35380789 36.02843243 68.37299618 39.93780773 68.390625 43.84765625 C68.41127014 45.05833267 68.43191528 46.26900909 68.45318604 47.51637268 C68.4549561 54.19915552 68.22516942 58.67867814 64 64 C60.92096211 65.95755558 58.48239143 66.26351058 54.86767578 66.30639648 C53.33555954 66.33037758 53.33555954 66.33037758 51.77249146 66.35484314 C50.6745224 66.36020584 49.57655334 66.36556854 48.4453125 66.37109375 C47.311008 66.38012222 46.17670349 66.3891507 45.00802612 66.39845276 C42.60905599 66.4129568 40.21004629 66.42184237 37.81103516 66.42553711 C34.1454794 66.43743353 30.48160678 66.48662113 26.81640625 66.53710938 C24.48438321 66.54657367 22.15234984 66.55380867 19.8203125 66.55859375 C18.72639191 66.57812607 17.63247131 66.59765839 16.50540161 66.61778259 C8.00583821 66.56751766 8.00583821 66.56751766 4.38623047 63.84008789 C-1.04848703 57.37169535 -0.26637707 50.45193387 -0.1953125 42.3828125 C-0.1924826 41.17051971 -0.18965271 39.95822693 -0.18673706 38.709198 C-0.17556667 34.84769711 -0.15046737 30.98643047 -0.125 27.125 C-0.11496616 24.50260752 -0.10584102 21.8802114 -0.09765625 19.2578125 C-0.07563754 12.83845178 -0.04112886 6.41926558 0 0 Z " fill="#0E6987" transform="translate(277,271)"/>
<path d="M0 0 C3.63 0 7.26 0 11 0 C11 9.24 11 18.48 11 28 C21.59943397 28.66314212 21.59943397 28.66314212 31.0390625 24.87109375 C33.58227836 22.0331878 35.79956461 19.11015603 38 16 C39.6139344 14.03253711 41.2386169 12.07383165 42.875 10.125 C44.97980386 7.52312068 46.99089297 5.01413364 48.8046875 2.19921875 C51 0 51 0 54.453125 -0.48828125 C56.33257812 -0.40126953 56.33257812 -0.40126953 58.25 -0.3125 C59.51328125 -0.26738281 60.7765625 -0.22226563 62.078125 -0.17578125 C63.04234375 -0.11777344 64.0065625 -0.05976563 65 0 C63.59160505 4.29445018 61.54145224 6.87046479 58.4375 10.125 C51.91060345 17.11473003 45.96892644 24.53215032 40 32 C41.40839495 36.29445018 43.45854776 38.87046479 46.5625 42.125 C51.63277513 47.55481707 56.35607234 53.19960786 61 59 C61.74507812 59.88945312 62.49015625 60.77890625 63.2578125 61.6953125 C65 64 65 64 65 66 C60.08292857 66.91649556 55.89776961 67.11963112 51 66 C46.57370982 62.8762346 43.49170723 58.24320131 40.36962891 53.88623047 C38.32434015 51.06949233 36.10236272 48.42496671 33.875 45.75 C33.17117187 44.87859375 32.46734375 44.0071875 31.7421875 43.109375 C28.80333213 39.41590822 28.80333213 39.41590822 24.0859375 38.5859375 C22.51616953 38.50436714 20.94568506 38.43642994 19.375 38.375 C16.61125 38.25125 13.8475 38.1275 11 38 C11 47.24 11 56.48 11 66 C7.37 66 3.74 66 0 66 C0 44.22 0 22.44 0 0 Z " fill="#0E6887" transform="translate(98,161)"/>
<path d="M0 0 C20.46 0 40.92 0 62 0 C62 3.3 62 6.6 62 10 C45.17 10 28.34 10 11 10 C11 15.94 11 21.88 11 28 C24.53 28 38.06 28 52 28 C52 31.3 52 34.6 52 38 C38.47 38 24.94 38 11 38 C11 47.24 11 56.48 11 66 C7.37 66 3.74 66 0 66 C0 44.22 0 22.44 0 0 Z " fill="#0E6987" transform="translate(354,271)"/>
<path d="M0 0 C20.13 0 40.26 0 61 0 C61 3.3 61 6.6 61 10 C44.5 10 28 10 11 10 C11 15.94 11 21.88 11 28 C24.2 28 37.4 28 51 28 C51 31.3 51 34.6 51 38 C37.8 38 24.6 38 11 38 C11 47.24 11 56.48 11 66 C7.37 66 3.74 66 0 66 C0 44.22 0 22.44 0 0 Z " fill="#0E6987" transform="translate(421,271)"/>
<path d="M0 0 C3.63 0 7.26 0 11 0 C11 18.48 11 36.96 11 56 C29.48 56 47.96 56 67 56 C67 59.3 67 62.6 67 66 C44.89 66 22.78 66 0 66 C0 44.22 0 22.44 0 0 Z " fill="#0F6987" transform="translate(206,271)"/>
<path d="M0 0 C0.99 0 1.98 0 3 0 C3.66 1.98 4.32 3.96 5 6 C5.66 6 6.32 6 7 6 C8.41696507 7.57054206 9.76106816 9.20746664 11.0625 10.875 C12.13177734 12.23238281 12.13177734 12.23238281 13.22265625 13.6171875 C16.23348132 17.65367825 16.55021627 21.04805359 16 26 C13.86111111 30.56944444 13.86111111 30.56944444 11 32 C8.3276379 32.13415472 5.67749512 32.04318541 3 32 C2.67 32.99 2.34 33.98 2 35 C3.32 35 4.64 35 6 35 C6 35.99 6 36.98 6 38 C2.37 38 -1.26 38 -5 38 C-5.495 36.515 -5.495 36.515 -6 35 C-4.35 35 -2.7 35 -1 35 C-1.495 33.515 -1.495 33.515 -2 32 C-3.051875 32.0825 -4.10375 32.165 -5.1875 32.25 C-9 32 -9 32 -11.875 30.5625 C-14.90420505 26.90963509 -15.26144253 23.67328519 -15 19 C-13.26955315 13.59235359 -9.35661648 9.54828041 -5 6 C-4.34 6 -3.68 6 -3 6 C-2.690625 5.195625 -2.38125 4.39125 -2.0625 3.5625 C-1 1 -1 1 0 0 Z " fill="#0E6887" transform="translate(200,185)"/>
<path d="M0 0 C2.35583613 1.44549451 4.44971762 2.8850001 6.625 4.5625 C7.87727328 5.4930869 9.13119562 6.42145863 10.38671875 7.34765625 C11.00208496 7.80414551 11.61745117 8.26063477 12.25146484 8.73095703 C14.58472914 10.42438175 16.99334141 11.97194283 19.4375 13.5 C23.96201221 16.33034122 28.42961091 19.23505807 32.875 22.1875 C33.50591553 22.60386719 34.13683105 23.02023437 34.78686523 23.44921875 C38.33433987 25.81136273 41.71124335 28.28021076 45 31 C44.398067 34.62786648 44.07311952 34.94354063 40.9140625 37.3828125 C39.49210826 38.30885934 38.06163527 39.22189663 36.625 40.125 C34.99636234 41.17157054 33.36883207 42.2198656 31.7421875 43.26953125 C30.83823242 43.85041504 29.93427734 44.43129883 29.00292969 45.02978516 C25.63241758 47.24116993 22.31981773 49.52668299 19.0078125 51.82421875 C17.19119335 53.07366922 15.37331352 54.32125973 13.55487061 55.5680542 C12.35505331 56.39531993 11.15908167 57.22819206 9.96710205 58.06671143 C8.27512758 59.25479396 6.56942934 60.42018108 4.859375 61.58203125 C3.87420898 62.26499268 2.88904297 62.9479541 1.87402344 63.65161133 C-1.6841052 65.32095761 -3.27846962 65.15233153 -7 64 C-9.3515625 62.65234375 -9.3515625 62.65234375 -11.625 60.9375 C-15.32455885 58.22375174 -19.04924544 55.59631127 -22.875 53.0625 C-23.88046875 52.39476562 -24.8859375 51.72703125 -25.921875 51.0390625 C-26.93765625 50.36617188 -27.9534375 49.69328125 -29 49 C-36.40344326 44.0956886 -43.75174125 39.13151062 -51 34 C-50.63812475 31.3663536 -50.26013106 30.23560206 -48.26075745 28.42475891 C-47.50512009 27.92147568 -46.74948273 27.41819244 -45.97094727 26.8996582 C-45.11658585 26.32258621 -44.26222443 25.74551422 -43.38197327 25.1509552 C-42.45283615 24.5403978 -41.52369904 23.92984039 -40.56640625 23.30078125 C-39.14399879 22.34730049 -39.14399879 22.34730049 -37.69285583 21.3745575 C-34.65645417 19.34307309 -31.60963187 17.32784456 -28.5625 15.3125 C-26.51168647 13.94308006 -24.46154736 12.57264955 -22.41210938 11.20117188 C-18.66488359 8.69877845 -14.91582599 6.19928667 -11.15844727 3.7121582 C-10.40201431 3.21126175 -9.64558136 2.7103653 -8.8662262 2.19429016 C-5.67034027 0.14908518 -3.81821519 -0.47593999 0 0 Z M-8.40136719 4.50097656 C-9.2619574 5.07197083 -10.12254761 5.64296509 -11.00921631 6.23126221 C-11.92914368 6.86135193 -12.84907104 7.49144165 -13.796875 8.140625 C-15.22003021 9.09760284 -15.22003021 9.09760284 -16.67193604 10.07391357 C-18.67657227 11.42641884 -20.676943 12.78526446 -22.67333984 14.14990234 C-25.74082957 16.24374035 -28.82412151 18.3125277 -31.91015625 20.37890625 C-33.85255555 21.69384679 -35.79399563 23.0102056 -37.734375 24.328125 C-38.66239929 24.9501178 -39.59042358 25.5721106 -40.54656982 26.21295166 C-41.81854218 27.08835602 -41.81854218 27.08835602 -43.11621094 27.98144531 C-43.8680365 28.49298157 -44.61986206 29.00451782 -45.39447021 29.53155518 C-45.92429504 30.01614197 -46.45411987 30.50072876 -47 31 C-47 31.99 -47 32.98 -47 34 C-45.51721077 35.42500041 -45.51721077 35.42500041 -43.48339844 36.6796875 C-42.71549988 37.19031738 -41.94760132 37.70094727 -41.15643311 38.22705078 C-39.89563934 39.04278564 -39.89563934 39.04278564 -38.609375 39.875 C-37.75321594 40.4407373 -36.89705688 41.00647461 -36.01495361 41.58935547 C-33.26629862 43.40274116 -30.50849591 45.20162764 -27.75 47 C-25.00791713 48.80145953 -22.26773682 50.60578187 -19.52789307 52.41064453 C-17.82013444 53.53408469 -16.11067856 54.65495001 -14.39935303 55.77294922 C-13.61884583 56.2835791 -12.83833862 56.79420898 -12.03417969 57.3203125 C-11.00825714 57.98957764 -11.00825714 57.98957764 -9.96160889 58.67236328 C-8 60 -8 60 -5.89892578 61.70471191 C-5.27228027 62.13215698 -4.64563477 62.55960205 -4 63 C-0.07543255 62.03273287 3.01797984 59.79405822 6.328125 57.53125 C7.37935547 56.81839844 8.43058594 56.10554688 9.51367188 55.37109375 C10.07658936 54.98743652 10.63950684 54.6037793 11.21948242 54.20849609 C14.37680959 52.06551385 17.55722057 49.9571712 20.734375 47.84375 C22.06260041 46.95848397 23.39072491 46.07306651 24.71875 45.1875 C30.8125 41.125 36.90625 37.0625 43 33 C39.29158365 28.85423508 34.81653355 26.01294889 30.21875 22.95703125 C29.36825073 22.38796555 28.51775146 21.81889984 27.64147949 21.23258972 C25.84765092 20.03434161 24.05224489 18.83845208 22.25537109 17.64477539 C19.50489655 15.81575612 16.76199455 13.9757688 14.01953125 12.13476562 C12.27388423 10.97068397 10.52780497 9.80725019 8.78125 8.64453125 C7.96136597 8.09352249 7.14148193 7.54251373 6.29675293 6.97480774 C5.52915649 6.46725449 4.76156006 5.95970123 3.97070312 5.43676758 C3.29881958 4.9891658 2.62693604 4.54156403 1.93469238 4.08039856 C-2.39953492 1.66001743 -4.25292437 1.70779133 -8.40136719 4.50097656 Z " fill="#0E6887" transform="translate(75,270)"/>
<path d="M0 0 C4.30764815 1.56641751 8.06171464 3.68336156 12 6 C11.34 6.66 10.68 7.32 10 8 C8.51714758 7.04737966 7.03881799 6.08771595 5.5625 5.125 C4.73878906 4.59132813 3.91507812 4.05765625 3.06640625 3.5078125 C1 2 1 2 0 0 Z " fill="#0E6986" transform="translate(94,291)"/>
<path d="M0 0 C4.19360449 0.67097672 7.40334352 2.8558394 11 5 C11 5.66 11 6.32 11 7 C6.89188572 5.55007731 3.53144334 3.54592427 0 1 C0 0.67 0 0.34 0 0 Z " fill="#0F6887" transform="translate(37,306)"/>
</svg>
